<?xml version="1.0" encoding="UTF-8"?>
<svg xmlns="http://www.w3.org/2000/svg" width="0" height="0" style="position:absolute" aria-hidden="true" focusable="false">
<defs>
  <linearGradient id="g-logo" x1="0" y1="0" x2="1" y2="1"><stop offset="0" stop-color="#4c9a4d"/><stop offset="1" stop-color="#25552a"/></linearGradient>
  <radialGradient id="g-cer" cx=".4" cy=".35" r=".8"><stop offset="0" stop-color="#fffaf0"/><stop offset="1" stop-color="#e6dcc4"/></radialGradient>
  <linearGradient id="g-steel" x1="0" y1="0" x2="1" y2="0"><stop offset="0" stop-color="#b8c3c7"/><stop offset=".35" stop-color="#f1f5f6"/><stop offset="1" stop-color="#9cabb0"/></linearGradient>
</defs>
<symbol id="logo" viewBox="0 0 40 40"><rect width="40" height="40" rx="12" fill="url(#g-logo)"/><path d="M11 10.5l9 12.5M20 23v8" stroke="#fff" stroke-width="4.4" stroke-linecap="round" fill="none"/><path d="M29.5 9C23.300 9.400 20.100 13.400 20 18.800c5.800-.4 9.500-3.400 9.500-9.800z" fill="#a8e6a1"/></symbol>
<symbol id="sb" viewBox="0 0 66 12"><rect x="0" y="7" width="3" height="5" rx="1"/><rect x="5" y="5" width="3" height="7" rx="1"/><rect x="10" y="2.500" width="3" height="9.500" rx="1"/><rect x="15" y="0" width="3" height="12" rx="1"/><path d="M27 4.200c3-2.600 7-2.600 10 0l-1.400 1.500c-2.200-1.800-5.200-1.800-7.200 0zM29.400 7c1.600-1.200 3.600-1.200 5.200 0L32 10z"/><rect x="43" y="1" width="20" height="10" rx="3" fill="none" stroke="currentColor" stroke-opacity=".5"/><rect x="45" y="3" width="14" height="6" rx="1.600"/><rect x="64" y="4" width="1.600" height="4" rx=".8" opacity=".5"/></symbol>

<!-- icons -->
<symbol id="i-home" viewBox="0 0 24 24"><path d="M3 11l9-8 9 8v9a1 1 0 0 1-1 1h-5v-6H9v6H4a1 1 0 0 1-1-1z"/></symbol>
<symbol id="i-compass" viewBox="0 0 24 24"><circle cx="12" cy="12" r="9"/><path d="M15.500 8.500l-2 5-5 2 2-5z"/></symbol>
<symbol id="i-cal" viewBox="0 0 24 24"><rect x="3" y="5" width="18" height="16" rx="2"/><path d="M3 10h18M8 3v4M16 3v4"/></symbol>
<symbol id="i-receipt" viewBox="0 0 24 24"><path d="M6 3h12v18l-3-2-3 2-3-2-3 2z"/><path d="M9 8h6M9 12h6"/></symbol>
<symbol id="i-user" viewBox="0 0 24 24"><circle cx="12" cy="8" r="4"/><path d="M4 21c0-4 4-6 8-6s8 2 8 6"/></symbol>
<symbol id="i-search" viewBox="0 0 24 24"><circle cx="11" cy="11" r="7"/><path d="M20 20l-4-4"/></symbol>
<symbol id="i-heart" viewBox="0 0 24 24"><path d="M12 21s-8-5.300-8-11a4.500 4.500 0 0 1 8-2.700A4.500 4.500 0 0 1 20 10c0 5.700-8 11-8 11z"/></symbol>
<symbol id="i-star" viewBox="0 0 24 24"><path d="M12 3l2.700 5.600 6.100.9-4.400 4.300 1 6.100L12 17l-5.400 2.900 1-6.100L3.200 9.500l6.100-.9z"/></symbol>
<symbol id="i-pin" viewBox="0 0 24 24"><path d="M12 21s7-6.200 7-11.500A7 7 0 0 0 5 9.500C5 14.800 12 21 12 21z"/><circle cx="12" cy="9.500" r="2.500"/></symbol>
<symbol id="i-clock" viewBox="0 0 24 24"><circle cx="12" cy="12" r="9"/><path d="M12 7v5l3 2"/></symbol>
<symbol id="i-arrow" viewBox="0 0 24 24"><path d="M5 12h14M13 6l6 6-6 6"/></symbol>
<symbol id="i-arrow-l" viewBox="0 0 24 24"><path d="M19 12H5M11 6l-6 6 6 6"/></symbol>
<symbol id="i-play" viewBox="0 0 24 24"><path d="M7 4l13 8-13 8z"/></symbol>
<symbol id="i-check" viewBox="0 0 24 24"><path d="M5 12.500l4.500 4.500L19 7.500"/></symbol>
<symbol id="i-plus" viewBox="0 0 24 24"><path d="M12 5v14M5 12h14"/></symbol>
<symbol id="i-cart" viewBox="0 0 24 24"><path d="M6 8h12l-1 12H7z"/><path d="M9 8V6a3 3 0 0 1 6 0v2"/></symbol>
<symbol id="i-store" viewBox="0 0 24 24"><path d="M4 9l1-5h14l1 5"/><path d="M4 9a3 3 0 0 0 5.300 2A3 3 0 0 0 14.700 11 3 3 0 0 0 20 9"/><path d="M5 12.500V20h14v-7.500"/><path d="M10 20v-4h4v4"/></symbol>
<symbol id="i-filter" viewBox="0 0 24 24"><path d="M4 6h9M17 6h3M4 12h3M11 12h9M4 18h11M19 18h1"/><circle cx="15" cy="6" r="2"/><circle cx="9" cy="12" r="2"/><circle cx="17" cy="18" r="2"/></symbol>
<symbol id="i-tag" viewBox="0 0 24 24"><path d="M3 12V4h8l10 10-8 8z"/><circle cx="7.500" cy="8.500" r="1.300"/></symbol>
<symbol id="i-shield" viewBox="0 0 24 24"><path d="M12 3l8 3v6c0 5-3.500 8-8 9-4.500-1-8-4-8-9V6z"/><path d="M9 12l2 2 4-4"/></symbol>
<symbol id="i-bolt" viewBox="0 0 24 24"><path d="M13 2L4 14h7l-1 8 9-12h-7z"/></symbol>
<symbol id="i-spark" viewBox="0 0 24 24"><path d="M12 3l2 6 6 2-6 2-2 6-2-6-6-2 6-2z"/></symbol>
<symbol id="i-msg" viewBox="0 0 24 24"><path d="M21 12a8 8 0 0 1-11.800 7L4 20l1.200-4.400A8 8 0 1 1 21 12z"/></symbol>
<symbol id="i-share" viewBox="0 0 24 24"><path d="M4 12v7h16v-7M12 15V4M8 8l4-4 4 4"/></symbol>
<symbol id="i-phone" viewBox="0 0 24 24"><rect x="7" y="2.500" width="10" height="19" rx="2.500"/><path d="M11 18.500h2"/></symbol>
<symbol id="i-users" viewBox="0 0 24 24"><circle cx="9" cy="8" r="3.500"/><path d="M2.500 20c0-3.500 3-5.500 6.500-5.500s6.500 2 6.500 5.500"/><path d="M16 4.700a3.500 3.500 0 0 1 0 6.600M18 14.800c2.200.7 3.500 2.500 3.500 5.200"/></symbol>
<symbol id="i-menu" viewBox="0 0 24 24"><path d="M4 7h16M4 12h16M4 17h10"/></symbol>
<symbol id="i-leaf" viewBox="0 0 24 24"><path d="M5 19C5 10 10 5 20 5c0 10-5 15-14 15"/><path d="M5 19c3-5 6-8 10-10"/></symbol>
<symbol id="i-chev" viewBox="0 0 24 24"><path d="M9 6l6 6-6 6"/></symbol>
<symbol id="i-chev-l" viewBox="0 0 24 24"><path d="M15 6l-6 6 6 6"/></symbol>
<symbol id="i-apple" viewBox="0 0 24 24"><path d="M16.600 3c.1 1.300-.4 2.500-1.200 3.400-.8.900-2 1.500-3.200 1.400-.1-1.200.4-2.400 1.200-3.300.8-.9 2.100-1.500 3.200-1.500zM20.200 17c-.5 1.200-1.100 2.300-1.900 3.300-.8 1-1.600 1.700-2.700 1.700-1 0-1.400-.6-2.600-.6s-1.600.6-2.600.6c-1.100 0-1.900-.9-2.700-1.900C5.900 17.800 5 15 5 12.500c0-3.200 2-4.900 4-4.900 1.100 0 1.900.7 2.700.7.700 0 1.700-.8 3-.8 1.100 0 2.700.4 3.700 1.900-3.200 1.700-2.700 6 1.800 7.600z" fill="currentColor" stroke="none"/></symbol>
<symbol id="i-gplay" viewBox="0 0 24 24"><path d="M4 2.500v19l10-9.500z" fill="#29b6f6"/><path d="M4 2.500l12.500 7.200L14 12z" fill="#66d17a"/><path d="M4 21.500l12.500-7.200L14 12z" fill="#ef5350"/><path d="M16.500 9.700L21 12l-4.500 2.300L14 12z" fill="#ffca28"/></symbol>

<!-- food illustrations -->
<symbol id="f-bowl" viewBox="0 0 200 200">
  <circle cx="103" cy="108" r="92" fill="#000" opacity=".16"/>
  <circle cx="100" cy="100" r="92" fill="url(#g-cer)"/><circle cx="100" cy="100" r="91" fill="none" stroke="#d6caae" stroke-width="2"/>
  <circle cx="100" cy="100" r="72" fill="#eee5d0"/><circle cx="100" cy="100" r="66" fill="#f3e2b0"/>
  <ellipse cx="62" cy="66" rx="22" ry="10" transform="rotate(-38 62 66)" fill="#4f9f4c"/><ellipse cx="78" cy="57" rx="20" ry="9" transform="rotate(20 78 57)" fill="#6bbf5f"/>
  <ellipse cx="54" cy="83" rx="18" ry="8" transform="rotate(-70 54 83)" fill="#357f3a"/><ellipse cx="82" cy="77" rx="16" ry="7" transform="rotate(-10 82 77)" fill="#80d06e"/>
  <path d="M112 44c14-4 30 2 38 14-14 4-30 0-38-14z" fill="#b6d466"/><path d="M116 48c10-2 22 1 28 8" fill="none" stroke="#7aa032" stroke-width="3" stroke-linecap="round"/>
  <path d="M122 68c14-4 28 2 34 14-14 4-28 0-34-14z" fill="#b6d466"/><path d="M126 72c9-1 19 2 24 8" fill="none" stroke="#7aa032" stroke-width="3" stroke-linecap="round"/>
  <rect x="112" y="102" width="36" height="18" rx="9" transform="rotate(20 130 111)" fill="#c98b4a"/><rect x="104" y="126" width="34" height="18" rx="9" transform="rotate(-12 121 135)" fill="#b87a3c"/><rect x="134" y="128" width="30" height="16" rx="8" transform="rotate(35 149 136)" fill="#c98b4a"/>
  <path d="M120 106l8 4M124 100l8 4M112 130l7-2M116 137l7-2" stroke="#7a4a22" stroke-width="2" stroke-linecap="round"/>
  <circle cx="64" cy="122" r="12" fill="#e2483a"/><circle cx="61" cy="118" r="3.500" fill="#fff" opacity=".4"/><circle cx="83" cy="141" r="11" fill="#d93f33"/><circle cx="52" cy="141" r="10" fill="#e5533f"/>
  <g fill="#e2b95c"><circle cx="92" cy="110" r="5"/><circle cx="100" cy="122" r="5"/><circle cx="88" cy="127" r="5"/><circle cx="102" cy="99" r="5"/><circle cx="76" cy="107" r="5"/></g>
  <path d="M48 100c14-8 28 8 42 0s26 8 42 0" fill="none" stroke="#4f8a2b" stroke-width="4" stroke-linecap="round" opacity=".85"/>
</symbol>
<symbol id="f-burger" viewBox="0 0 200 200">
  <ellipse cx="100" cy="178" rx="74" ry="9" fill="#000" opacity=".2"/>
  <path d="M28 96c0-38 32-60 72-60s72 22 72 60z" fill="#e0913a"/><path d="M40 84c6-22 26-34 48-38-18 8-30 20-34 38z" fill="#f0ad5a" opacity=".55"/>
  <g fill="#fbe8bf"><ellipse cx="72" cy="62" rx="5" ry="2.500" transform="rotate(-20 72 62)"/><ellipse cx="104" cy="52" rx="5" ry="2.500"/><ellipse cx="130" cy="66" rx="5" ry="2.500" transform="rotate(25 130 66)"/><ellipse cx="90" cy="76" rx="5" ry="2.500" transform="rotate(10 90 76)"/><ellipse cx="118" cy="82" rx="5" ry="2.500" transform="rotate(-15 118 82)"/></g>
  <path d="M22 104c10 10 20-6 32 4s20-6 32 4 20-6 32 4 20-6 32 4 12-8 20 0v4H22z" fill="#69b34c"/>
  <rect x="34" y="108" width="132" height="10" rx="5" fill="#dd4a3a"/>
  <path d="M30 118h140l-16 16-14-10-14 12-14-12-14 10-14-12-14 12-14-10z" fill="#f4c542"/>
  <rect x="26" y="124" width="148" height="22" rx="11" fill="#5a3a26"/>
  <path d="M30 148h140c0 18-12 26-28 26H58c-16 0-28-8-28-26z" fill="#d9832f"/>
</symbol>
<symbol id="f-tiffin" viewBox="0 0 200 200">
  <ellipse cx="100" cy="184" rx="60" ry="8" fill="#000" opacity=".2"/>
  <path d="M60 46c0-22 80-22 80 0" fill="none" stroke="#8fa0a5" stroke-width="7" stroke-linecap="round"/>
  <rect x="52" y="120" width="96" height="58" rx="10" fill="url(#g-steel)"/><rect x="52" y="126" width="96" height="4" fill="#7f8f95" opacity=".6"/>
  <rect x="52" y="76" width="96" height="46" rx="10" fill="url(#g-steel)"/><rect x="52" y="82" width="96" height="4" fill="#7f8f95" opacity=".6"/>
  <rect x="52" y="40" width="96" height="40" rx="12" fill="url(#g-steel)"/><rect x="52" y="46" width="96" height="4" fill="#7f8f95" opacity=".6"/>
  <rect x="97" y="34" width="6" height="146" rx="3" fill="#6f8087"/><circle cx="100" cy="34" r="7" fill="#6f8087"/>
</symbol>
<symbol id="f-cake" viewBox="0 0 200 200">
  <ellipse cx="100" cy="170" rx="80" ry="12" fill="#000" opacity=".18"/><ellipse cx="100" cy="164" rx="80" ry="12" fill="#fff"/>
  <rect x="44" y="76" width="112" height="24" fill="#5a3221"/><rect x="44" y="100" width="112" height="14" fill="#fbe9cf"/><rect x="44" y="114" width="112" height="24" fill="#5a3221"/><rect x="44" y="138" width="112" height="20" rx="0" fill="#fbe9cf"/>
  <path d="M44 82c0-12 10-18 26-18h60c16 0 26 6 26 18z" fill="#7a4630"/>
  <path d="M60 82v14M84 82v10M118 82v16M140 82v10" stroke="#7a4630" stroke-width="7" stroke-linecap="round"/>
  <circle cx="100" cy="52" r="15" fill="#e0413a"/><path d="M92 40c4-4 12-4 16 0-4 2-12 2-16 0z" fill="#4f9f4c"/><g fill="#ffe3a3"><circle cx="94" cy="52" r="1.500"/><circle cx="104" cy="50" r="1.500"/><circle cx="100" cy="58" r="1.500"/></g>
</symbol>
<symbol id="f-matcha" viewBox="0 0 200 200">
  <ellipse cx="100" cy="184" rx="52" ry="7" fill="#000" opacity=".2"/>
  <path d="M62 50h76l-8 128H70z" fill="#e9f5ea" opacity=".35"/>
  <path d="M65 90h70l-5 88H70z" fill="#fbf7ec"/><path d="M63 62h74l-2 30H65z" fill="#8fc06a"/><path d="M65 90h70l-1 10c-20 6-48 6-68 0z" fill="#fbf7ec"/><path d="M63 50h74l-1 14c-24 6-48 6-72 0z" fill="#e6f2d3"/>
  <g fill="#fff" opacity=".7"><rect x="78" y="70" width="18" height="18" rx="4" transform="rotate(-10 87 79)"/><rect x="108" y="76" width="18" height="18" rx="4" transform="rotate(12 117 85)"/></g>
  <path d="M62 50h76l-8 128H70z" fill="none" stroke="#fff" stroke-opacity=".7" stroke-width="3"/>
  <path d="M118 12l14 78" stroke="#e0913a" stroke-width="6" stroke-linecap="round"/>
</symbol>
<symbol id="f-thali" viewBox="0 0 200 200">
  <circle cx="103" cy="108" r="92" fill="#000" opacity=".16"/><circle cx="100" cy="100" r="92" fill="url(#g-steel)"/><circle cx="100" cy="100" r="80" fill="#dfe6e8"/>
  <circle cx="100" cy="146" r="28" fill="#e6c48a"/><circle cx="100" cy="146" r="28" fill="none" stroke="#c99a58" stroke-width="2" stroke-dasharray="3 6"/>
  <g stroke="#b8c3c7" stroke-width="2"><circle cx="64" cy="70" r="24" fill="#f4f7f8"/><circle cx="136" cy="70" r="24" fill="#f4f7f8"/><circle cx="52" cy="112" r="20" fill="#f4f7f8"/><circle cx="148" cy="112" r="20" fill="#f4f7f8"/><circle cx="100" cy="50" r="20" fill="#f4f7f8"/></g>
  <circle cx="64" cy="70" r="19" fill="#e5b23a"/><circle cx="136" cy="70" r="19" fill="#d2562c"/><circle cx="52" cy="112" r="15" fill="#5a9a3f"/><circle cx="148" cy="112" r="15" fill="#fff6e2"/><circle cx="100" cy="50" r="15" fill="#f3f0e6"/>
  <circle cx="136" cy="70" r="6" fill="#f0d9b0"/><circle cx="58" cy="66" r="4" fill="#f7d76e" opacity=".8"/>
</symbol>
<symbol id="f-pan" viewBox="0 0 200 200">
  <circle cx="90" cy="108" r="76" fill="#000" opacity=".2"/>
  <rect x="152" y="92" width="48" height="16" rx="8" fill="#151b18"/><circle cx="90" cy="100" r="76" fill="#232c28"/><circle cx="90" cy="100" r="66" fill="#33403a"/>
  <ellipse cx="66" cy="76" rx="16" ry="6" transform="rotate(-30 66 76)" fill="#fff" opacity=".07"/>
  <g fill="#4f9f4c"><circle cx="58" cy="90" r="11"/><circle cx="70" cy="82" r="10"/><circle cx="66" cy="98" r="9"/></g><g fill="#357f3a"><circle cx="54" cy="88" r="4"/><circle cx="72" cy="80" r="4"/></g>
  <rect x="88" y="64" width="24" height="12" rx="4" transform="rotate(20 100 70)" fill="#e2483a"/><rect x="104" y="110" width="26" height="12" rx="4" transform="rotate(-25 117 116)" fill="#f0b43a"/><rect x="70" y="118" width="24" height="12" rx="4" transform="rotate(15 82 124)" fill="#e2483a"/>
  <g fill="#f7ecd0"><rect x="92" y="88" width="16" height="16" rx="3" transform="rotate(15 100 96)"/><rect x="112" y="80" width="14" height="14" rx="3" transform="rotate(-20 119 87)"/><rect x="60" y="106" width="14" height="14" rx="3" transform="rotate(30 67 113)"/><rect x="116" y="100" width="14" height="14" rx="3" transform="rotate(10 123 107)"/></g>
  <g fill="#c98b4a" opacity=".85"><rect x="98" y="120" width="10" height="10" rx="2"/><rect x="82" y="60" width="10" height="10" rx="2"/></g>
</symbol>
<symbol id="i-box" viewBox="0 0 24 24"><path d="M3 7l9-4 9 4-9 4-9-4z"/><path d="M3 7v10l9 4 9-4V7"/><path d="M12 11v10"/></symbol>
<symbol id="i-cutlery" viewBox="0 0 24 24"><path d="M6 2v7a2 2 0 0 0 4 0V2M8 2v20"/><path d="M16 2c-1.2 3-1.2 6 0 8 .8.5 1.5.5 2 0V2M17 10v12"/></symbol>
<symbol id="i-globe" viewBox="0 0 24 24"><circle cx="12" cy="12" r="9"/><path d="M3 12h18"/><path d="M12 3c3 3 3 15 0 18M12 3c-3 3-3 15 0 18"/></symbol>
<symbol id="f-kraft" viewBox="0 0 200 200">
  <ellipse cx="100" cy="176" rx="70" ry="10" fill="#000" opacity=".18"/>
  <path d="M46 86l8 84h92l8-84z" fill="#c9a06a"/>
  <path d="M46 86l8 84h20l-6-84z" fill="#b98d54" opacity=".6"/>
  <path d="M124 86l-6 84h20l8-84z" fill="#dcb885" opacity=".55"/>
  <path d="M40 66l60-18 60 18-14 22H54z" fill="#d6b17e"/>
  <path d="M40 66l60-18v22l-46 8z" fill="#c9a06a" opacity=".7"/>
  <rect x="94" y="46" width="12" height="42" fill="#8a6a3c"/>
  <path d="M68 54c10-14 30-18 46-8" fill="none" stroke="#6f9a4c" stroke-width="6" stroke-linecap="round"/>
  <path d="M62 60c6-4 14-4 18 2-6 4-14 4-18-2z" fill="#6fae4c"/>
  <path d="M120 52c6-6 16-6 20 0-6 4-14 4-20 0z" fill="#7dbd57"/>
  <path d="M96 60c4-8 12-10 18-6-4 6-12 8-18 6z" fill="#8fcc66"/>
</symbol>
<symbol id="f-veg" viewBox="0 0 200 200">
  <ellipse cx="100" cy="176" rx="82" ry="9" fill="#000" opacity=".18"/>
  <ellipse cx="56" cy="90" rx="26" ry="10" transform="rotate(-50 56 90)" fill="#4f9f4c"/><ellipse cx="72" cy="80" rx="28" ry="10" transform="rotate(-20 72 80)" fill="#6bbf5f"/><ellipse cx="46" cy="110" rx="24" ry="9" transform="rotate(-80 46 110)" fill="#357f3a"/>
  <path d="M140 60l26 76c2 6-4 10-8 5L120 84z" fill="#f0913a"/><path d="M140 60l-8-20M140 60l6-22M140 60l-1-24" stroke="#4f9f4c" stroke-width="5" stroke-linecap="round"/>
  <circle cx="92" cy="140" r="34" fill="#e2483a"/><path d="M78 108c8-8 24-8 32 0-8 6-24 6-32 0z" fill="#4f9f4c"/><circle cx="80" cy="130" r="8" fill="#fff" opacity=".28"/>
  <circle cx="142" cy="150" r="24" fill="#d93f33"/><path d="M132 130c6-6 16-6 22 0-6 4-16 4-22 0z" fill="#357f3a"/>
  <ellipse cx="40" cy="150" rx="26" ry="20" fill="#f6d040"/><path d="M14 150c6-4 6-6 0-8M66 150c-6-4-6-6 0-8" stroke="#e2b32a" stroke-width="4" fill="none" stroke-linecap="round"/>
</symbol>
<symbol id="f-chef" viewBox="0 0 200 240">
  <path d="M26 240c0-46 32-66 74-66s74 20 74 66z" fill="#f7f7f2"/><path d="M76 180l24 26 24-26" fill="none" stroke="#326a33" stroke-width="7" stroke-linejoin="round" stroke-linecap="round"/>
  <g fill="#d9d9d0"><circle cx="100" cy="216" r="3"/><circle cx="100" cy="230" r="3"/></g>
  <rect x="86" y="148" width="28" height="36" rx="12" fill="#d29a70"/>
  <ellipse cx="100" cy="122" rx="38" ry="42" fill="#e7b48a"/><ellipse cx="62" cy="126" rx="6" ry="9" fill="#e0a87c"/><ellipse cx="138" cy="126" rx="6" ry="9" fill="#e0a87c"/>
  <circle cx="72" cy="58" r="24" fill="#fff" stroke="#e3e8df" stroke-width="2"/><circle cx="128" cy="58" r="24" fill="#fff" stroke="#e3e8df" stroke-width="2"/><circle cx="100" cy="44" r="30" fill="#fff" stroke="#e3e8df" stroke-width="2"/>
  <rect x="62" y="72" width="76" height="24" rx="7" fill="#fff" stroke="#e3e8df" stroke-width="2"/>
  <path d="M62 112c8-10 20-14 38-14s30 4 38 14c-2-20-16-32-38-32s-36 12-38 32z" fill="#3a2718" opacity=".0"/>
  <circle cx="86" cy="122" r="4" fill="#2a1a12"/><circle cx="114" cy="122" r="4" fill="#2a1a12"/><path d="M86 140q14 12 28 0" fill="none" stroke="#7a3f2a" stroke-width="4" stroke-linecap="round"/>
  <circle cx="76" cy="136" r="6" fill="#f08a7a" opacity=".45"/><circle cx="124" cy="136" r="6" fill="#f08a7a" opacity=".45"/>
</symbol>
<symbol id="f-steam" viewBox="0 0 200 200">
  <g fill="none" stroke="#fff" stroke-width="7" stroke-linecap="round" opacity=".38"><path d="M60 190c-14-22 14-34 0-58s14-36 0-58"/><path d="M100 196c-14-22 14-34 0-58s14-36 0-58"/><path d="M140 190c-14-22 14-34 0-58s14-36 0-58"/></g>
</symbol>
</svg>
